<svg width="25" height="5" viewBox="0 0 25 5" fill="none" xmlns="http://www.w3.org/2000/svg">
<path d="M2.73816 4.14C2.2315 4.14 1.8115 3.98667 1.47816 3.68C1.15816 3.36 0.998164 2.96667 0.998164 2.5C0.998164 2.03333 1.15816 1.64667 1.47816 1.34C1.8115 1.02 2.2315 0.86 2.73816 0.86C3.2315 0.86 3.63816 1.02 3.95816 1.34C4.27816 1.64667 4.43816 2.03333 4.43816 2.5C4.43816 2.96667 4.27816 3.36 3.95816 3.68C3.63816 3.98667 3.2315 4.14 2.73816 4.14ZM12.6991 4.14C12.1924 4.14 11.7724 3.98667 11.4391 3.68C11.1191 3.36 10.9591 2.96667 10.9591 2.5C10.9591 2.03333 11.1191 1.64667 11.4391 1.34C11.7724 1.02 12.1924 0.86 12.6991 0.86C13.1924 0.86 13.5991 1.02 13.9191 1.34C14.2391 1.64667 14.3991 2.03333 14.3991 2.5C14.3991 2.96667 14.2391 3.36 13.9191 3.68C13.5991 3.98667 13.1924 4.14 12.6991 4.14ZM22.66 4.14C22.1534 4.14 21.7334 3.98667 21.4 3.68C21.08 3.36 20.92 2.96667 20.92 2.5C20.92 2.03333 21.08 1.64667 21.4 1.34C21.7334 1.02 22.1534 0.86 22.66 0.86C23.1534 0.86 23.56 1.02 23.88 1.34C24.2 1.64667 24.36 2.03333 24.36 2.5C24.36 2.96667 24.2 3.36 23.88 3.68C23.56 3.98667 23.1534 4.14 22.66 4.14Z" fill="white"/>
</svg>
