<svg width="25" height="25" viewBox="0 0 25 25" fill="none" xmlns="http://www.w3.org/2000/svg">
<path d="M12.4998 4.29383L11.3795 3.14226C8.74984 0.439138 3.92796 1.37195 2.18734 4.77039C1.37015 6.36883 1.18577 8.67664 2.67796 11.622C4.11546 14.4579 7.10609 17.8548 12.4998 21.5548C17.8936 17.8548 20.8826 14.4579 22.3217 11.622C23.8139 8.67508 23.6311 6.36883 22.8123 4.77039C21.0717 1.37195 16.2498 0.437576 13.6201 3.1407L12.4998 4.29383ZM12.4998 23.4376C-11.458 7.60633 5.12327 -4.74992 12.2248 1.78601C12.3186 1.87195 12.4108 1.96101 12.4998 2.0532C12.588 1.9611 12.6797 1.87249 12.7748 1.78758C19.8748 -4.75305 36.4576 7.60476 12.4998 23.4376Z" fill="white"/>
</svg>
